<svg width="1283" height="1219" viewBox="0 0 1283 1219" fill="none" xmlns="http://www.w3.org/2000/svg">
<g clip-path="url(#clip0_7_446)">
<ellipse cx="666.5" cy="655.5" rx="557.5" ry="555.5" fill="#4BA4A4"/>
<mask id="mask0_7_446" style="mask-type:alpha" maskUnits="userSpaceOnUse" x="106" y="99" width="1119" height="1120">
<circle cx="665.5" cy="659.5" r="559.5" fill="#D9D9D9"/>
</mask>
<g mask="url(#mask0_7_446)">
<path d="M190.5 787.5L242.5 844L752.5 1066L1999.5 1054L2131.59 -239H-428.415L190.5 787.5Z" fill="#CCEEF1"/>
</g>
<path d="M1014.27 888.438C1015.44 888.806 1016.61 889.152 1017.79 889.478C1017.41 890.118 1017.11 890.736 1016.32 890.749C1015.52 890.762 1014.89 889.549 1014.27 888.438ZM1161.69 867.809C1157.93 852.406 1136.52 851.714 1136.52 851.714C1136.52 851.714 1136.95 859.056 1133.99 855.71C1131.03 852.365 1120.16 847.889 1114.4 849.07C1110.4 849.893 1111.93 853.606 1113.24 855.809C1112.12 854.3 1110.2 852.204 1107.77 851.453C1103.8 850.232 1091.75 851.032 1091.75 851.032L1093.37 859.264L1088.48 851.762L1075.84 855.858C1075.84 855.858 1081.36 867.545 1079.65 867.714C1077.96 867.885 1070.15 859.664 1070.15 859.664C1070.15 859.664 1061.89 859.984 1058.47 865.181C1055.04 870.378 1061.24 873.198 1058.81 874.754C1058.81 874.754 1053.83 871.153 1047.25 874.684C1047.21 874.618 1047.19 874.522 1047.15 874.466C1045.43 872.461 1043.43 870.21 1043.43 870.21C1043.43 870.21 1049.12 871.625 1049.69 867.558C1050.27 863.49 1050.97 852.442 1050.97 852.442L1042.47 844.017L1050.29 845.26L1052.49 822.833L1045.92 815.589L1052.67 816.385L1053.89 809.852L1049.77 803.216C1049.77 803.216 1055.44 804.097 1055.91 802.986C1056.39 801.877 1063.37 779.061 1062.76 777.504C1062.13 775.945 1059.63 774.272 1059.63 774.272C1059.63 774.272 1066.21 772.398 1066.65 770.754C1067.09 769.11 1077.97 748.661 1080.96 744.668C1083.93 740.673 1048.88 754.768 1033.07 782.585C1033.07 782.585 1033.16 788.744 1032.96 790.1C1032.77 791.456 1028.57 788.309 1028.11 789.42C1027.64 790.53 1020.35 803.452 1020.77 806.365C1021.21 809.278 1025.21 813.78 1025.03 815.136C1024.84 816.492 1018.92 811.341 1016.41 814.224C1013.89 817.108 1013.57 825.445 1013.57 825.445L1018.64 829.86C1018.64 829.86 1013.03 830.045 1011.27 832.064C1009.51 834.082 1010.95 854.608 1011.85 856.41C1012.76 858.214 1018.88 857.452 1019.53 859.544C1020.19 861.634 1017.01 862.428 1017.17 865.096C1017.24 866.218 1018.87 869.781 1021.32 873.817C1014.92 868.01 1007.29 861.609 1000.2 857C983.667 846.274 996.853 860.622 994.333 861.374C991.813 862.125 986.68 852.189 983.28 852.238C979.88 852.288 956.133 853.105 956.133 853.105C956.133 853.105 961.707 860.65 959.28 860.686C956.84 860.721 955.267 853.594 949.347 854.394C943.427 855.194 929.227 868.268 927 874.734L949.613 876.554C949.613 876.554 949.32 870.838 950.32 872.016C951.307 873.193 951.827 876.468 952.613 876.804C953.4 877.141 962 877.366 962.027 876.669C962.053 875.972 963.12 871.952 963.573 871.162C964.027 870.372 965.133 875.405 965.933 876.177C966.72 876.949 976.253 879.337 976.467 879.073C976.68 878.809 980.32 873.533 980.973 874.046C981.627 874.558 979.387 877.377 981 878.224C982.613 879.072 991.107 880.508 992.4 880.986C993.693 881.464 993.973 876.852 995.027 876.656C996.093 876.461 994.8 880.612 996.693 881.662C997.427 882.069 1003.19 884.634 1010.08 887.05C1005.85 887.945 998.133 890.137 997.467 891.281C996.6 892.78 997.72 896.278 997.72 896.278L993.867 894.056C993.867 894.056 988.773 895.965 987.547 898.105C986.307 900.245 990.8 902.84 990 903.234C989.2 903.63 985.533 902.081 983.627 902.41C981.733 902.74 975.32 909.885 974.733 910.404C974.147 910.922 977.027 912.865 976.227 913.261C975.427 913.656 971.587 914.865 971.587 914.865C957.827 930.317 956.8 954.834 958.613 952.176C960.44 949.517 970.72 938.617 971.64 938.009C972.573 937.4 972.28 932.953 972.28 932.953C972.28 932.953 973.867 934.156 974.973 934.222C976.08 934.288 988.68 925.3 989.267 924.781C989.853 924.262 988.053 920.944 988.053 920.944L993.08 922.13L996.853 920.032L994.88 916.038L1000.81 918.608L1014.24 912.657L1011.75 908.078L1018.84 911.604C1018.84 911.604 1025.53 908.904 1027.93 907.718C1030.32 906.533 1028.2 903.306 1028.2 903.306C1028.2 903.306 1030.03 904.08 1031.65 904.73C1032.11 904.912 1032.73 904.853 1033.4 904.69C1043.84 932.305 1066.28 999.74 1053.43 1039.48L1082.24 1035.39C1082.24 1035.39 1070.39 960.918 1043.57 905.029C1044.56 904.545 1045.39 904.128 1045.39 904.128C1045.39 904.128 1043.68 907.152 1045.89 908.066C1048.12 908.98 1054.28 910.985 1054.28 910.985L1060.43 907.388L1058.47 911.644L1070.87 916.146L1076.03 913.477L1074.51 917.177L1078.01 918.825L1082.44 917.45C1082.44 917.45 1081.04 920.536 1081.6 920.964C1082.16 921.392 1094.01 928.668 1094.99 928.54C1095.97 928.413 1097.32 927.237 1097.32 927.237C1097.32 927.237 1097.35 931.238 1098.21 931.728C1099.07 932.217 1108.96 941.348 1110.76 943.617C1112.55 945.888 1110.12 923.981 1096.83 910.986C1096.83 910.986 1093.31 910.138 1092.57 909.834C1091.83 909.529 1094.28 907.61 1093.73 907.182C1093.17 906.753 1086.99 900.746 1085.27 900.569C1083.55 900.392 1080.35 902.006 1079.61 901.702C1078.87 901.397 1082.73 898.794 1081.49 896.953C1080.25 895.112 1075.57 893.716 1075.57 893.716L1072.25 895.946C1072.25 895.946 1073.04 892.741 1072.17 891.452C1071.31 890.164 1059.41 887.998 1058.24 888.249C1057.08 888.501 1056.53 892.074 1055.25 892.141C1053.99 892.206 1053.99 890.42 1052.56 890.048C1096.49 873.969 1161.69 867.809 1161.69 867.809Z" fill="#93DBDA"/>
<path d="M1042.88 1050.93C1042.88 1050.93 1186.76 1159.42 811.672 922.885C436.583 686.354 434.179 449.395 455.923 354.078C477.667 258.759 413.6 179 413.6 179C413.6 179 230.865 212.218 191 423.728C191 738.794 275.5 962 596.5 1110C811.672 1166.5 997.279 1103.27 997.279 1103.27L1042.88 1050.93Z" fill="#5CB4B2"/>
<path d="M388 933C388 933 65.7764 726.755 221.519 331C221.519 331 145.332 685.153 388 933Z" fill="#4BA4A4"/>
<path d="M444.158 1135.5C444.158 1135.5 281.658 1081 172.158 907.5C125.658 820.5 165.207 879.88 159.447 803.211C153.688 726.543 126.5 695.711 126.5 695.711C126.5 695.711 118 703.5 108.907 695.711C146.588 767.841 86.0209 663.118 140.5 777.5C218.5 994 444.158 1135.5 444.158 1135.5Z" fill="#4BA4A4"/>
<path d="M563.651 894.372C563.651 894.372 248.057 791.021 237.5 349.5C237.5 349.5 208.277 779.362 563.651 894.372Z" fill="#4BA4A4"/>
<path d="M116.5 664C116.5 664 172 336.5 260.513 297.601C369.665 256.202 344.13 342.133 401.771 385.832C459.414 429.529 526.14 274.855 544.536 323.152C562.932 371.45 596.046 385.248 652.461 371.45C708.876 357.651 735.857 477.244 786.14 440.447C836.423 403.648 730.952 180.559 594.819 136.861C458.687 93.1638 78.1546 292.032 116.5 664Z" fill="white"/>
<path d="M140.18 83.0336C137.527 63.755 164.734 47.8962 185.179 46.2482C194.929 45.4629 205.055 46.9536 214.291 43.7336C234.303 36.759 242.297 10.9056 261.823 2.66958C276.422 -3.48775 293.229 1.99352 307.381 9.11619C321.534 16.2389 335.519 25.2029 351.33 26.2149C365.083 27.0949 380.019 21.9949 392.051 28.7136C401.018 33.7203 405.715 44.0523 413.979 50.1469C422.065 56.1109 432.611 57.3736 442.643 57.9189C452.675 58.4656 463.061 58.5655 472.197 62.7495C481.331 66.9309 488.887 76.591 486.991 86.4563L140.18 83.0336Z" fill="#93DBDA"/>
<path d="M936.18 248.033C933.527 228.755 960.727 212.896 981.167 211.248C990.927 210.463 1001.05 211.953 1010.29 208.733C1030.3 201.759 1038.29 175.905 1057.82 167.669C1072.42 161.512 1089.22 166.993 1103.38 174.116C1117.53 181.239 1131.51 190.203 1147.33 191.215C1161.07 192.096 1176.01 186.995 1188.05 193.713C1197.01 198.72 1201.71 209.052 1209.98 215.147C1218.06 221.111 1228.61 222.373 1238.63 222.919C1248.67 223.465 1259.06 223.567 1268.19 227.749C1277.33 231.931 1284.89 241.591 1282.98 251.456L936.18 248.033Z" fill="#93DBDA"/>
<path d="M1058.55 409.231C1061.2 389.952 1033.99 374.092 1013.55 372.444C1003.8 371.659 993.665 373.149 984.439 369.931C964.425 362.956 956.425 337.101 936.905 328.865C922.305 322.709 905.492 328.191 891.345 335.313C877.192 342.436 863.206 351.4 847.394 352.411C833.642 353.292 818.706 348.191 806.674 354.909C797.708 359.916 793.01 370.248 784.746 376.344C776.661 382.307 766.113 383.571 756.083 384.116C746.051 384.661 735.664 384.763 726.529 388.945C717.394 393.128 709.839 402.787 711.733 412.653L1058.55 409.231Z" fill="#93DBDA"/>
<path d="M1108.07 1060.05C1026.64 982.784 674.487 703.815 275.12 752.155C265.535 753.315 245.437 796.449 242.281 805.575L244.6 844.057C244.863 848.416 246.509 852.717 249.708 855.689C559.163 1143.2 977.679 1107.47 1090.28 1096.92C1100.6 1095.95 1115.59 1067.18 1108.07 1060.05Z" fill="#FBC03E"/>
<path d="M1107.05 1056.41C1026.12 979.605 699.913 684.363 304.079 728.365C289.989 729.932 277.495 738.137 270.649 750.552L243.683 799.451C240.527 808.576 242.853 818.715 249.675 825.548C533.887 1110.25 988.132 1087.63 1099.88 1077.16C1110.2 1076.2 1114.57 1063.55 1107.05 1056.41Z" fill="#F46F2F"/>
<path d="M318.973 747.406C310.745 747.914 304.796 751.229 301.363 757.02L280.737 792.424C278.529 798.806 281.363 806.021 287.515 811.508C555.519 1050.56 954.412 1045.87 1041.57 1041.71C1048.01 1041.41 1050.79 1033.41 1045.91 1029.18C980.079 972.082 678.457 725.242 318.973 747.406Z" fill="#FBC03E"/>
<path d="M926.798 979.157C919.758 1003.39 790.045 987.011 637.081 942.573C484.117 898.137 365.821 842.471 372.861 818.239C379.9 794.007 509.609 810.385 662.573 854.821C815.538 899.257 933.838 954.925 926.798 979.157Z" fill="#F6A320"/>
<path d="M722.844 634.96L724.477 687.22C724.477 687.22 799.105 884.535 802.193 899.976C805.281 915.416 788.812 956.592 781.605 965.856C774.4 975.12 783.664 974.091 804.252 971.003C824.84 967.915 832.045 977.179 841.309 965.856C850.574 954.532 836.162 911.299 838.221 893.799C840.28 876.3 847.486 804.243 822.781 749.685C798.076 695.128 809.398 639.541 809.398 639.541L722.844 634.96Z" fill="#EF304A"/>
<path d="M555.473 548.562L525.187 569.641C517.215 575.189 512.312 584.11 511.943 593.816C510.001 644.792 503.628 805.693 500.165 815.214C496.048 826.538 420.904 857.42 415.756 858.449C410.609 859.478 418.844 868.742 443.549 864.625C468.255 860.508 540.312 865.654 545.459 850.213C550.605 834.773 538.253 836.832 544.429 811.097C550.605 785.362 587.663 674.189 574.281 617.573L595.28 611.116L555.473 548.562Z" fill="#EF304A"/>
<path d="M623.335 169.9C623.335 169.9 563.448 219.321 622.172 271.648C622.172 271.648 742.033 326.012 778.197 300.781C814.361 275.551 810.156 302.464 842.956 278.915C875.756 255.367 880.503 234.635 880.503 234.635L623.335 169.9Z" fill="#421E3F"/>
<path d="M626.037 286.902C626.037 286.902 575.957 296.92 567.786 301.005C559.614 305.09 464.077 385.44 453.864 397.696C443.651 409.952 415.475 547.688 415.475 547.688L448.403 548.656C448.403 548.656 471.823 466.248 487.143 430.5C487.143 430.5 571.137 386.294 589.521 364.845C589.521 364.845 617.097 450.638 632.419 474.13C647.739 497.621 630.376 500.685 630.376 500.685C630.376 500.685 562.967 532.346 545.604 547.666C545.604 547.666 540.497 586.478 588.5 615.076L703.407 567.564L718.457 651.85C718.457 651.85 773.393 699.261 818.547 642.82L796.854 476.173L737.27 372.424L793.837 399.933L799.948 469.609L828.613 476.774L834.677 369.283L740.349 300.824C733.159 295.855 724.747 292.945 716.023 292.412L626.037 286.902Z" fill="#FBC03E"/>
<path d="M857.901 462.896C857.901 462.896 852.644 467.69 853.728 473.712C854.381 477.344 868.383 481.44 859.64 482.826C845.939 485 830.56 486.96 820.849 476.797L824.476 449.429L850.24 440.398L852.268 446.098C856.384 446.669 858.713 446.609 864.519 450.806L865.017 452.016L857.901 462.896Z" fill="#EF304A"/>
<mask id="mask1_7_446" style="mask-type:luminance" maskUnits="userSpaceOnUse" x="849" y="454" width="10" height="10">
<path d="M858.349 454.972C858.349 454.972 858.079 463.252 855.585 463.721C852.604 464.283 848.096 456.136 849.3 455.972C850.988 455.743 858.349 454.972 858.349 454.972Z" fill="white"/>
</mask>
<g mask="url(#mask1_7_446)">
<path d="M858.349 454.972C858.349 454.972 858.079 463.252 855.585 463.721C852.604 464.283 848.096 456.136 849.3 455.972C850.988 455.743 858.349 454.972 858.349 454.972Z" fill="url(#paint0_linear_7_446)"/>
</g>
<path d="M846.184 455.517L187.879 589.924L193.312 607.564L849.933 475.081L846.184 455.517Z" fill="white"/>
<path d="M267.499 596.224L205.465 641.411C190.365 652.991 172.747 660.847 154.04 664.34L65.3079 680.913C44.8879 684.727 24.8079 672.793 18.4 653.033L2.00392 602.48C-4.25874 583.169 8.32526 562.859 28.4053 559.871L133.616 544.215C150.496 541.704 167.733 543.307 183.86 548.887L265.773 574.241L267.499 596.224Z" fill="#56275C"/>
<path d="M232.571 585.084C232.571 585.084 110.528 617.92 34.8359 623.568C34.8359 623.568 138.903 597.721 232.571 585.084Z" fill="#421E3F"/>
<path d="M833.669 438.317L844.895 493.426C845.04 494.141 845.737 494.602 846.452 494.457L858.368 492.03C859.083 491.885 859.544 491.188 859.397 490.473L848.173 435.362C848.028 434.649 847.331 434.188 846.616 434.333L834.7 436.76C833.985 436.905 833.524 437.602 833.669 438.317Z" fill="white"/>
<path d="M446.047 533.373C446.047 533.373 438.552 528.148 433.296 531.068C433.296 531.068 425.741 527.32 422.332 532.972C422.332 532.972 410.107 525.244 408.735 540.733C407.361 556.221 407.117 582.468 420.721 575.621C420.721 575.621 425.883 579.316 430.643 575.765C430.643 575.765 439.469 580.349 443.787 573.776C443.787 573.776 451.625 578.016 453.684 570.261C455.743 562.508 457.161 533.088 453.139 531.356C449.117 529.624 446.047 533.373 446.047 533.373Z" fill="#EF304A"/>
<path d="M446.047 533.373C446.047 533.373 446.763 558.929 443.787 573.776" stroke="#421E3F" stroke-width="1.42305" stroke-miterlimit="10" stroke-linecap="round"/>
<path d="M422.332 532.972C422.332 532.972 420.761 566.624 420.721 575.621" stroke="#421E3F" stroke-width="1.42305" stroke-miterlimit="10" stroke-linecap="round"/>
<path d="M433.296 531.068C433.296 531.068 433.245 564.958 430.643 575.765" stroke="#421E3F" stroke-width="1.42305" stroke-miterlimit="10" stroke-linecap="round"/>
<path d="M453.139 531.356C449.117 529.624 446.047 533.373 446.047 533.373C446.047 533.373 438.552 528.148 433.296 531.068C433.296 531.068 425.741 527.32 422.332 532.972C422.332 532.972 410.107 525.244 408.735 540.733" stroke="#421E3F" stroke-width="1.42305" stroke-miterlimit="10" stroke-linecap="round"/>
<path d="M867.842 480.539C867.704 479.052 866.161 477.597 863.948 476.369C864.169 476.371 864.388 476.373 864.613 476.371C864.613 476.371 871.929 476.531 870.368 470.884C869.877 469.107 867.87 467.537 865.221 466.34C865.681 466.299 866.148 466.251 866.623 466.195C866.623 466.195 874.449 465.535 872.77 460.311C872.22 458.597 869.908 457.285 866.896 456.437C866.932 456.427 866.965 456.419 867.001 456.408C867.001 456.408 874.524 454.491 871.434 449.311C868.345 444.131 850.186 445.373 846.886 450.401C845.277 452.853 846.539 455.363 849.949 456.796C849.407 457.063 848.933 457.363 848.558 457.707C846.256 459.824 847.004 462.463 850.335 464.299C849.26 464.561 848.364 464.963 847.744 465.527C845.441 467.624 846.391 470.721 850.061 473.072C848.741 473.164 847.604 473.432 846.784 473.916C841.94 476.775 846.953 484.084 861.044 485.233C861.044 485.233 868.3 485.457 867.842 480.539Z" fill="#EF304A"/>
<path d="M820.972 460.64C819.979 455.363 820.511 453.191 824.207 449.26C828.501 444.693 836.501 439.361 842.991 439.575C854.755 439.96 861.504 439.928 858.791 452.877C856.583 463.416 856.429 466.807 852.664 463.56C847.344 458.973 849.291 450.015 849.291 450.015L847.124 449.776C839.841 456.704 831.3 462.157 820.972 460.64Z" fill="#EF304A"/>
<path d="M858.822 452.838C858.822 452.838 855.626 451.933 854.9 453.694C854.172 455.456 853.296 458.904 854.218 460.209C855.142 461.514 855.757 462.193 856.344 462.278C856.931 462.362 857.105 461.221 857.284 460.317C857.462 459.413 858.822 452.838 858.822 452.838Z" fill="#F8BEB5"/>
<path d="M824.207 449.26C828.501 444.693 836.501 439.361 842.991 439.575C854.755 439.96 861.504 439.928 858.791 452.877C856.583 463.416 856.429 466.807 852.664 463.56C847.344 458.973 849.291 450.015 849.291 450.015L847.124 449.776" stroke="#421E3F" stroke-width="1.42305" stroke-miterlimit="10" stroke-linecap="round"/>
<path d="M849.82 464.428C848.848 464.665 848.037 465.028 847.477 465.538C845.395 467.434 846.253 470.237 849.573 472.361C848.38 472.445 847.35 472.686 846.608 473.125C842.228 475.71 846.317 483.376 859.06 484.416" stroke="#421E3F" stroke-width="1.42305" stroke-miterlimit="10" stroke-linecap="round"/>
<path d="M731.225 641.115C731.225 641.115 757.509 655.9 799.4 637.829" stroke="#421E3F" stroke-width="1.42305" stroke-miterlimit="10" stroke-linecap="round"/>
<path d="M569.412 552.405C569.412 552.405 575.982 586.081 597.338 600.045" stroke="#421E3F" stroke-width="1.42305" stroke-miterlimit="10" stroke-linecap="round"/>
<path d="M567.787 301.005C563.399 303.2 533.813 327.389 505.776 351.216C527.64 347.054 537.712 332.234 560.32 318.901C586.413 303.513 618.869 298.55 618.869 298.55L626.645 286.938L626.037 286.902C626.037 286.902 575.957 296.92 567.787 301.005Z" fill="#F46F2F"/>
<path d="M716.022 292.412L674.278 289.894C668.75 293.184 669.185 296.376 670.044 298.83C670.044 298.83 701.656 303.997 743.564 303.157L740.349 300.824C733.159 295.854 724.748 292.945 716.022 292.412Z" fill="#F46F2F"/>
<path d="M595.757 377.837C595.757 377.837 596.295 381.694 597.249 387.986C606.508 415.01 622.043 458.014 632.259 473.873C640.951 419.221 595.757 377.837 595.757 377.837Z" fill="#F46F2F"/>
<path d="M786.89 458.824L742.681 381.847L738.864 380.305C738.864 380.305 737.218 416.493 761.069 439.521C780.326 458.115 785.58 459.124 786.89 458.824Z" fill="#F46F2F"/>
<path d="M678.709 404.605C700.936 400.448 721.896 392.701 721.896 392.701" stroke="#421E3F" stroke-width="1.42305" stroke-miterlimit="10" stroke-linecap="round"/>
<path d="M618.207 372.67C618.207 372.67 614.672 398.593 641.184 405.662C647.812 407.43 656.169 407.504 664.98 406.62" stroke="#421E3F" stroke-width="1.42305" stroke-miterlimit="10" stroke-linecap="round"/>
<path d="M704.892 196.96C704.892 196.96 713.868 284.52 672.541 283.624C631.215 282.728 620.817 243.404 620.817 243.404C620.817 243.404 609.125 245.274 609.248 232.916C609.371 220.558 620.665 219.884 623.063 225.994L630.989 170.178L672.315 169.746L704.892 196.96Z" fill="#EF304A"/>
<path d="M619.618 239.02L618.869 298.55L628.499 309.96C641.704 325.609 666.844 321.436 674.284 302.358L674.525 272.328L619.618 239.02Z" fill="#EF304A"/>
<path d="M674.359 283.639C674.359 283.639 659.055 283.052 643.673 275.478C643.673 275.478 660.231 293.418 674.28 292.109L674.359 283.639Z" fill="#E61C29"/>
<path d="M662.372 210.989C662.224 210.933 662.069 210.892 661.908 210.864C654.109 209.563 648.573 212.373 648.342 212.493C647.129 213.121 646.656 214.617 647.286 215.829C647.913 217.039 649.4 217.512 650.612 216.892C650.69 216.852 655.022 214.733 661.09 215.747C662.44 215.972 663.714 215.061 663.941 213.714C664.138 212.528 663.456 211.397 662.372 210.989Z" fill="#421E3F"/>
<path d="M683.657 212.536C683.808 212.485 683.962 212.446 684.125 212.425C691.96 211.364 697.407 214.345 697.633 214.472C698.827 215.138 699.253 216.648 698.586 217.84C697.922 219.029 696.421 219.456 695.229 218.8C695.152 218.757 690.888 216.505 684.79 217.33C683.436 217.513 682.189 216.564 682.005 215.21C681.844 214.018 682.56 212.909 683.657 212.536Z" fill="#421E3F"/>
<path d="M652.749 227.221C652.688 229.129 654.184 230.724 656.09 230.785C657.998 230.847 659.593 229.351 659.654 227.444C659.716 225.536 658.22 223.941 656.313 223.88C654.405 223.819 652.81 225.315 652.749 227.221Z" fill="#421E3F"/>
<path d="M685.683 229.121C685.621 231.028 687.117 232.624 689.024 232.685C690.931 232.745 692.526 231.249 692.588 229.343C692.649 227.436 691.153 225.84 689.245 225.779C687.339 225.717 685.743 227.215 685.683 229.121Z" fill="#421E3F"/>
<path d="M672.548 228.26C672.548 228.26 678.3 238.952 676.119 241.423C674.749 242.975 672.423 243.655 672.423 243.655" stroke="#421E3F" stroke-width="1.42305" stroke-miterlimit="10" stroke-linecap="round"/>
<path d="M658.545 251.383C658.545 251.383 669.242 253.559 675.486 254.361C675.486 254.361 676.026 261.404 669.332 261.969C662.638 262.535 658.545 251.383 658.545 251.383Z" fill="white"/>
<path d="M620.3 234.059C620.3 234.059 618.114 229.923 614.51 229.909" stroke="#421E3F" stroke-width="1.42305" stroke-miterlimit="10" stroke-linecap="round"/>
<path d="M615.361 235.316L617.627 231.503" stroke="#421E3F" stroke-width="1.42305" stroke-miterlimit="10" stroke-linecap="round"/>
<path d="M653.996 176.664C653.996 176.664 670.502 175.877 682.292 186.881C694.082 197.885 697.226 203.388 716.09 213.605C734.954 223.824 781.614 266.834 805.213 255.034C828.812 243.236 869.776 265.741 880.502 234.634C891.229 203.526 828.848 157.536 783.856 181.157C737 205.756 644.712 93.4079 614.28 181.021C604.145 210.196 623.062 225.994 623.062 225.994C623.062 225.994 636.401 189.241 653.996 176.664Z" fill="#421E3F"/>
<path d="M555.473 548.563C555.473 548.563 556.964 567.801 566.421 579.25" stroke="#421E3F" stroke-width="1.42305" stroke-miterlimit="10" stroke-linecap="round"/>
<path d="M761.045 658.394C761.045 658.394 784.44 662.873 804.848 645.452" stroke="#421E3F" stroke-width="1.42305" stroke-miterlimit="10" stroke-linecap="round"/>
<path d="M703.406 567.564L716.745 553.864" stroke="#421E3F" stroke-width="1.42305" stroke-miterlimit="10" stroke-linecap="round"/>
<path d="M589.521 364.845L590.812 353.267" stroke="#421E3F" stroke-width="1.42305" stroke-miterlimit="10" stroke-linecap="round"/>
<path d="M620.179 310.459C620.179 310.459 628.641 326.388 657.013 324.396" stroke="#421E3F" stroke-width="1.42305" stroke-miterlimit="10" stroke-linecap="round"/>
<path d="M737.27 372.424L727.696 363.221" stroke="#421E3F" stroke-width="1.42305" stroke-miterlimit="10" stroke-linecap="round"/>
<path d="M793.837 399.933L790.912 385.122" stroke="#421E3F" stroke-width="1.42305" stroke-miterlimit="10" stroke-linecap="round"/>
<path d="M487.143 430.5C487.143 430.5 482.3 423.948 478.815 419.469" stroke="#421E3F" stroke-width="1.42305" stroke-miterlimit="10" stroke-linecap="round"/>
<path d="M518.516 600.281C518.516 600.281 522.951 604.716 531.819 609.149" stroke="#421E3F" stroke-width="1.42305" stroke-miterlimit="10" stroke-linecap="round"/>
<path d="M751.636 689.601C751.636 689.601 768.74 701.004 788.379 689.601" stroke="#421E3F" stroke-width="1.42305" stroke-miterlimit="10" stroke-linecap="round"/>
<path d="M436.992 988.561C436.992 988.561 593.629 1076.79 863.217 1116.81C958.185 1130.92 949.612 1078.67 909.545 1077.05C869.467 1075.42 825.735 1050.23 795.563 1065.77C765.392 1081.31 761.075 1037.93 732.224 1058.1C703.373 1078.26 719.273 1032.95 665.483 1047.94C611.693 1062.92 436.992 988.561 436.992 988.561Z" fill="white"/>
<path d="M122.5 669.5C122.5 669.5 211.699 832.655 343.832 930.972C343.832 930.972 165 836 122.5 669.5Z" fill="white"/>
</g>
<defs>
<linearGradient id="paint0_linear_7_446" x1="853.084" y1="454.219" x2="856.668" y2="463.243" gradientUnits="userSpaceOnUse">
<stop stop-color="#D5676E"/>
<stop offset="0.994165" stop-color="#F18E8D"/>
<stop offset="1" stop-color="#F18E8D"/>
</linearGradient>
<clipPath id="clip0_7_446">
<rect width="1283" height="1219" fill="white"/>
</clipPath>
</defs>
</svg>
