<svg width="371" height="403" viewBox="0 0 371 403" fill="none" xmlns="http://www.w3.org/2000/svg">
<path fill-rule="evenodd" clip-rule="evenodd" d="M129.059 33.4697C74.8638 51.5761 35.1946 86.4104 10.0512 137.972C7.6469 137.972 6.44493 136.771 6.44493 134.369C30.7091 77.692 71.5806 38.0531 129.059 15.4521C142.848 9.4619 157.274 5.25801 172.334 2.83968C232.37 -6.37539 286.464 6.83744 334.617 42.4786C310.97 35.4164 286.928 28.2093 262.491 20.8574C216.088 10.6705 171.61 14.8744 129.059 33.4697Z" fill="#059DA9"/>
<path fill-rule="evenodd" clip-rule="evenodd" d="M276.917 361.391C204.725 362.253 146.424 334.624 102.012 278.51C102.969 291.672 107.777 303.683 116.437 314.546C146.028 353.017 182.692 382.447 226.429 402.832C215.358 402.778 204.539 400.375 193.972 395.625C180.749 389.618 167.526 383.614 154.303 377.607C105.44 346.786 71.1804 304.146 51.5236 249.682C49.1193 259.291 49.1193 268.901 51.5236 278.51C56.0012 295.435 59.6075 312.252 62.3425 328.96C44.6323 299.89 32.6115 268.66 26.2796 235.268C22.2853 264.346 25.2904 292.574 35.2953 319.951C34.6941 321.753 34.0933 323.554 33.4922 325.356C28.6839 318.149 23.8753 310.942 19.067 303.735C-21.7273 183.471 16.1387 98.1867 132.665 47.8839C168.57 34.7018 205.835 29.2965 244.46 31.668C220.586 38.1233 196.544 44.1293 172.334 49.6856C116.306 71.4377 77.8391 110.476 56.933 166.801C58.135 169.203 59.3374 171.605 60.5393 174.008C71.6629 157.791 81.881 140.974 91.1928 123.558C117.632 90.3551 151.892 72.9378 193.972 71.3068C178.541 76.6141 164.116 83.8212 150.697 92.9281C111.839 114.744 93.2062 147.776 94.7991 192.025C99.8212 178.383 105.832 165.171 112.831 152.386C129.74 123.397 154.383 105.979 186.759 100.135C129.718 130.638 117.096 174.481 148.893 231.664C188.634 284.989 242.127 310.815 309.373 309.14C318.468 315.215 317.266 320.02 305.767 323.554C273.674 327.046 242.42 324.643 212.003 316.347C231.757 329.814 253.394 339.421 276.917 345.176C308.283 346.995 339.536 346.995 370.68 345.176C340.225 355.165 308.97 360.57 276.917 361.391Z" fill="#02A2AE"/>
<path fill-rule="evenodd" clip-rule="evenodd" d="M6.44493 134.369C6.44493 136.771 7.6469 137.972 10.0512 137.972C7.0937 143.882 4.08865 149.888 1.03557 155.99C-0.425124 147.792 1.37809 140.585 6.44493 134.369Z" fill="#02A2AE"/>
</svg>
