<svg width="398" height="336" viewBox="0 0 398 336" fill="none" xmlns="http://www.w3.org/2000/svg">
<path d="M43.7905 148.367C43.7905 148.367 55.7243 129.945 87.1862 129.945C122.626 129.945 126.966 162.093 126.966 174.736C127.161 183.45 130.175 212.001 125.157 235.511C123.605 242.81 134.952 249.312 140.632 237.708C152.219 214.003 161.064 181.223 164.937 149.451C164.937 145.116 165.298 137.892 165.298 137.531C165.298 137.531 178.679 129.945 202.546 129.945C246.665 129.945 247.75 160.287 248.473 179.071C248.76 198.832 248.443 229.325 245.58 253.15C244.857 259.155 251.623 265.16 256.761 256.687C270.94 233.298 282.979 197.026 286.083 151.618C286.445 141.504 285.721 133.919 285.721 133.557C285.721 133.557 296.57 129.945 308.866 129.945C331.287 129.945 355.516 141.865 354.07 174.736C349.368 247.702 294.039 335.838 228.945 335.838C198.568 335.838 189.889 316.694 194.229 295.021C199.653 263.595 202.185 226.39 202.908 197.493L200.015 196.77C187.358 246.257 155.896 335.838 100.205 335.838C66.2116 335.838 59.3406 320.306 59.7023 301.162C61.5104 226.39 54.2778 166.067 43.7905 148.367Z" fill="#0FC2C0"/>
<path d="M27.2634 110.67C25.9361 110.355 24.6121 109.975 23.2868 109.621C23.2127 109.604 23.1327 109.613 23.0586 109.596C21.6432 109.354 20.2251 109.163 18.8177 108.857C18.3454 108.754 17.8859 108.407 17.4211 108.162C16.2219 107.542 15.0375 106.82 13.8283 106.304C12.1336 105.58 10.5171 104.253 8.9301 102.81C6.73958 100.817 4.69413 98.1067 3.13778 93.4657C1.78397 89.4312 1.14695 84.5791 1.61308 78.5928C2.05172 72.9548 3.10627 68.4371 5.04743 65.3258C6.16621 63.5317 7.27392 62.6698 8.49739 62.5522C19.9409 61.5558 31.3884 60.4818 42.8339 59.4466C61.5848 57.7561 80.3357 56.0656 99.086 54.388C118.556 52.6443 138.025 50.9265 157.5 49.1831C180.803 47.1082 272.758 38.6007 296.068 36.3967C306.104 35.4434 316.146 34.2055 326.192 32.9029C331.108 32.2655 336.027 31.3174 340.955 30.2919C343.634 29.7322 346.326 29.471 349.003 28.3152C350.818 27.5291 352.604 27.402 354.398 26.9386C355.737 26.5938 357.077 26.2104 358.413 25.736C359.853 25.2282 361.289 24.5388 362.725 24.0178C364.19 23.4854 365.657 23.1085 367.123 22.5502C396.645 11.1271 407.547 35.3574 385.913 55.099C384.993 55.9578 384.051 56.5045 383.159 57.7275C382.665 58.4012 382.095 58.5529 381.557 58.9134C378.794 60.816 376.035 62.8095 373.27 64.5695C371.091 65.9585 368.904 67.0362 366.719 68.2695C365.253 69.0868 363.787 69.9042 362.325 70.7347C362.147 70.829 361.964 70.9361 361.782 71.0043C358.763 72.2588 355.745 73.5652 352.729 74.7422C350.741 75.5193 348.753 76.1151 346.765 76.7887C345.507 77.2153 344.238 77.3953 342.987 78.1332C341.948 78.7526 340.922 78.5825 339.903 79.177C338.141 80.2121 336.396 79.7195 334.656 80.5874C332.863 81.4784 331.103 81.1274 329.334 81.916C327.311 82.808 325.315 82.4837 323.31 83.3118C321.521 84.0475 319.76 83.7872 317.99 84.5888C315.502 85.7155 313.051 85.1213 310.582 86.0548C307.554 87.1922 304.568 86.8034 301.563 87.7736C298.563 88.7441 295.6 88.4729 292.616 89.3925C289.332 90.413 286.08 90.2045 282.809 91.1609C279.086 92.2491 275.4 91.9014 271.69 92.9256C265.719 94.5831 191.153 100.668 185.199 101.886C175.833 103.807 166.532 103.685 157.176 105.308C149.683 106.602 142.229 106.964 134.753 107.753C127.954 108.474 116.843 109.384 110.063 109.665C101.279 110.023 92.4573 111.389 83.692 111.308C77.7483 111.257 71.7642 112.344 65.8353 112.099C63.2564 111.991 60.6694 112.128 58.0838 112.148C57.7556 112.157 27.8951 110.768 27.2568 110.618L27.2634 110.67Z" fill="#0FC2C0"/>
</svg>
